<svg id="Layer_1" data-name="Layer 1" xmlns="http://www.w3.org/2000/svg" viewBox="0 0 40 40"><defs><style>.cls-1{fill:#fff;}</style></defs><path class="cls-1" d="M1,6.12A2.58,2.58,0,0,1,2.23,4.56a2.42,2.42,0,0,1,1.11-.29H22.55c.09,0,.22,0,.25.07s-.08.15-.14.21c-.69.66-1.38,1.31-2.05,2a.72.72,0,0,1-.56.22H3.87c-.43,0-.43,0-.43.43V36.71c0,.12.05.18.17.17H30.77c.38,0,.38,0,.38-.37V21.89a.75.75,0,0,1,.27-.62c.67-.62,1.32-1.26,2-1.89.06-.05.12-.15.19-.12s.06.15.06.23V36.87a2.44,2.44,0,0,1-2,2.43,2.32,2.32,0,0,1-.46,0q-13.87,0-27.76,0a2.52,2.52,0,0,1-2.36-1.68L1,37.48Z"/><path class="cls-1" d="M34.93.66A5.47,5.47,0,0,1,37.35,1.8a6.76,6.76,0,0,1,1.81,2.14A4.51,4.51,0,0,1,39,8.61a8.14,8.14,0,0,1-1.26,1.55l-6.38,6.32-6.94,6.84-3,3a1.52,1.52,0,0,1-.63.39L12.29,29.4a1.05,1.05,0,0,1-1.45-.67,1.06,1.06,0,0,1,0-.66c.7-2.31,1.39-4.62,2.09-6.94.16-.54.32-1.09.47-1.64a1.55,1.55,0,0,1,.42-.72l9-9C25.25,7.38,27.63,5,30,2.66a6.47,6.47,0,0,1,3.55-2ZM14,26.24l.2,0,5.38-1.72a.75.75,0,0,0,.28-.18L25.24,19l3-2.95c2.68-2.65,5.37-5.27,8-8A3.79,3.79,0,0,0,37,7a1.91,1.91,0,0,0,0-1.74,4.49,4.49,0,0,0-1.6-1.75,2.19,2.19,0,0,0-1.56-.35,3.51,3.51,0,0,0-2,1.08q-8,8-16,16a1,1,0,0,0-.26.43c-.32,1.11-.65,2.22-1,3.33C14.47,24.69,14.24,25.45,14,26.24Z"/></svg>