<svg id="Layer_1" data-name="Layer 1" xmlns="http://www.w3.org/2000/svg" viewBox="0 0 40 40"><defs><style>.cls-1{fill:#fff;}</style></defs><path class="cls-1" d="M6.07,20.73V5.47a3.22,3.22,0,0,1,.09-.82A2.91,2.91,0,0,1,8.45,2.47,3.05,3.05,0,0,1,9,2.42c.41,0,.81,0,1.21,0s.28,0,.28-.26v-1c0-.18,0-.21.22-.21h1.1c.15,0,.18,0,.19.2v1c0,.21,0,.23.24.23h4a.12.12,0,0,0,.12-.12,1.09,1.09,0,0,0,0-.18V1.25c0-.28,0-.29.28-.29h1.09a.12.12,0,0,1,.13.11c0,.06,0,.12,0,.18v1c0,.09.05.12.14.13h3.88c.32,0,.32,0,.32-.31V1.17c0-.17,0-.21.2-.21h1.19a.11.11,0,0,1,.11.1,1.09,1.09,0,0,1,0,.18v1c0,.18,0,.21.22.21h4c.05,0,.08,0,.09-.09a1.09,1.09,0,0,0,0-.18V1.25c0-.28,0-.29.28-.29h1.12c.05,0,.09,0,.09.09a.55.55,0,0,1,0,.18V2c0,.43,0,.4.39.4h1.12a2.93,2.93,0,0,1,2.81,2.36,3.5,3.5,0,0,1,.07.65V35.81a4.23,4.23,0,0,1,0,.71,2.89,2.89,0,0,1-1.5,2.17,2.78,2.78,0,0,1-.93.32,1.66,1.66,0,0,1-.32,0h-22A3.18,3.18,0,0,1,8.25,39a2.89,2.89,0,0,1-1.8-1.41A3,3,0,0,1,6.07,36Zm1.51,0V36.15a1.43,1.43,0,0,0,1.13,1.37,2.11,2.11,0,0,0,.5,0H30.92a1.46,1.46,0,0,0,.54-.09,1.39,1.39,0,0,0,.91-1,1.84,1.84,0,0,0,.05-.52V5.48a1.62,1.62,0,0,0,0-.22,1.45,1.45,0,0,0-.52-1,1.5,1.5,0,0,0-1-.35H29.76c-.19,0-.21,0-.22.21v1a1.09,1.09,0,0,1,0,.18.13.13,0,0,1-.11.11H28.23c-.16,0-.19,0-.2-.21V4.22c0-.32,0-.32-.32-.32H23.82a.12.12,0,0,0-.13.12,1.21,1.21,0,0,0,0,.19v.84a1.21,1.21,0,0,1,0,.19.12.12,0,0,1-.12.11h-1.1c-.26,0-.27,0-.28-.27V4.18c0-.27,0-.28-.28-.28H18.11c-.27,0-.28,0-.28.28V5a1.09,1.09,0,0,1,0,.18c0,.11,0,.14-.14.15H16.42a.11.11,0,0,1-.09-.09,1.27,1.27,0,0,1,0-.2v-1c0-.16,0-.19-.19-.2h-4C12,3.91,12,4,12,4.06V5a1.15,1.15,0,0,1,0,.19.13.13,0,0,1-.13.13H10.62c-.11,0-.15,0-.16-.16V4a.13.13,0,0,0-.13-.13H9.09A1.84,1.84,0,0,0,8.62,4a1.4,1.4,0,0,0-1,1.35V20.73Z"/></svg>