<svg id="Layer_1" data-name="Layer 1" xmlns="http://www.w3.org/2000/svg" viewBox="0 0 40 40"><defs><style>.cls-1{fill:#fff;}</style></defs><path class="cls-1" d="M37.76,20.07c0,4.7,0,9.4,0,14.1a5.36,5.36,0,0,1-5.31,5.41q-12.44,0-24.87,0a5.37,5.37,0,0,1-5.34-5.45V5.86A5.38,5.38,0,0,1,7.66.41H32.31A5.38,5.38,0,0,1,37.76,5.9ZM34.12,20V6.4c0-1.65-.58-2.24-2.19-2.24H8.06c-1.57,0-2.18.61-2.18,2.17V33.67c0,1.56.61,2.16,2.19,2.16H31.94c1.57,0,2.18-.6,2.18-2.17Z"/><path class="cls-1" d="M20,11.25H11.36a1.88,1.88,0,1,1,0-3.74c2.1,0,4.2,0,6.3,0H28.57A1.88,1.88,0,0,1,30.68,9.3a1.85,1.85,0,0,1-2,1.94Z"/><path class="cls-1" d="M19.93,18.33c-2.86,0-5.72,0-8.57,0a1.88,1.88,0,1,1,0-3.75H28.57a1.89,1.89,0,1,1,.07,3.75C25.74,18.34,22.83,18.33,19.93,18.33Z"/><path class="cls-1" d="M20,25.42H11.37a1.87,1.87,0,1,1-.1-3.74c1.61,0,3.21,0,4.82,0H28.55a1.87,1.87,0,0,1,2.12,1.78,1.83,1.83,0,0,1-2,2C25.78,25.43,22.9,25.42,20,25.42Z"/><path class="cls-1" d="M14.7,32.5H11.45c-1.31,0-2.12-.72-2.13-1.86a1.87,1.87,0,0,1,2.09-1.89c2.2,0,4.39,0,6.59,0a1.88,1.88,0,1,1,0,3.75Z"/></svg>